<?xml version="1.0" standalone="no"?>
<!DOCTYPE svg PUBLIC "-//W3C//DTD SVG 1.1//EN" "http://www.w3.org/Graphics/SVG/1.1/DTD/svg11.dtd">
<!--Generator: Xara Designer (www.xara.com), SVG filter version: 6.6.0.0-->
<svg fill="none" fill-rule="evenodd" stroke="black" stroke-width="0.501" stroke-linejoin="bevel" stroke-miterlimit="10" font-family="Times New Roman" font-size="16" style="font-variant-ligatures:none" xmlns:xlink="http://www.w3.org/1999/xlink" xmlns="http://www.w3.org/2000/svg" version="1.1" overflow="visible" width="53.22pt" height="54.314pt" viewBox="300.439 -1182.4 53.22 54.314">
 <defs>
	</defs>
 <g id="Page background" transform="scale(1 -1)"/>
 <g id="MouseOff" transform="scale(1 -1)">
  <text xml:space="preserve" transform="translate(326.594 1141.68) scale(1 -1)" kerning="auto" font-family="Ubuntu" font-size="12" stroke="none" fill="#000000" stroke-width="0.47" stroke-linejoin="round" stroke-linecap="round"><tspan x="-27.187" y="0">Perimeter</tspan><tspan x="-16.082" y="13.453">Fence</tspan></text>
  <g id="Group" fill="#191919" stroke-linejoin="miter" stroke-linecap="round" stroke="none" stroke-width="0.183">
   <path d="M 338.64,1180.2 L 338.098,1180.72 C 337.937,1180.88 337.68,1180.88 337.526,1180.71 C 337.37,1180.55 337.374,1180.3 337.535,1180.14 L 337.955,1179.74 L 337.955,1164.8 L 334.46,1164.8 L 334.46,1179.74 L 336.207,1181.43 L 336.682,1180.97 C 336.842,1180.81 337.098,1180.82 337.254,1180.98 C 337.41,1181.14 337.406,1181.39 337.244,1181.55 L 336.488,1182.28 C 336.331,1182.43 336.083,1182.43 335.925,1182.28 L 333.772,1180.2 C 333.695,1180.12 333.651,1180.02 333.651,1179.91 L 333.651,1177.32 L 332.492,1177.32 L 332.492,1179.91 C 332.492,1180.02 332.447,1180.12 332.368,1180.2 L 330.216,1182.28 C 330.06,1182.43 329.81,1182.43 329.654,1182.28 L 327.502,1180.2 C 327.422,1180.12 327.378,1180.02 327.378,1179.91 L 327.378,1177.32 L 326.219,1177.32 L 326.219,1179.91 C 326.219,1180.02 326.175,1180.12 326.097,1180.2 L 323.944,1182.28 C 323.786,1182.43 323.537,1182.43 323.381,1182.28 L 321.227,1180.2 C 321.15,1180.12 321.104,1180.02 321.104,1179.91 L 321.104,1177.32 L 319.947,1177.32 L 319.947,1179.91 C 319.947,1180.02 319.902,1180.12 319.824,1180.2 L 317.671,1182.28 C 317.515,1182.43 317.265,1182.43 317.109,1182.28 L 314.957,1180.2 C 314.878,1180.12 314.832,1180.02 314.832,1179.91 L 314.832,1176.27 C 314.832,1176.04 315.015,1175.86 315.237,1175.86 C 315.462,1175.86 315.642,1176.04 315.642,1176.27 L 315.642,1179.74 L 317.391,1181.43 L 319.138,1179.74 L 319.138,1164.8 L 315.642,1164.8 L 315.642,1174.92 C 315.642,1175.14 315.462,1175.32 315.237,1175.32 C 315.015,1175.32 314.832,1175.14 314.832,1174.92 L 314.832,1164.39 C 314.832,1164.17 315.015,1163.98 315.237,1163.98 L 319.543,1163.98 C 319.764,1163.98 319.947,1164.17 319.947,1164.39 L 319.947,1165.61 L 321.104,1165.61 L 321.104,1164.39 C 321.104,1164.17 321.287,1163.98 321.511,1163.98 L 325.814,1163.98 C 326.038,1163.98 326.219,1164.17 326.219,1164.39 L 326.219,1165.61 L 327.378,1165.61 L 327.378,1164.39 C 327.378,1164.17 327.56,1163.98 327.782,1163.98 L 332.088,1163.98 C 332.311,1163.98 332.492,1164.17 332.492,1164.39 L 332.492,1165.61 L 333.651,1165.61 L 333.651,1164.39 C 333.651,1164.17 333.832,1163.98 334.055,1163.98 L 338.36,1163.98 C 338.584,1163.98 338.764,1164.17 338.764,1164.39 L 338.764,1179.91 C 338.764,1180.02 338.72,1180.12 338.64,1180.2 Z M 321.104,1166.41 L 319.947,1166.41 L 319.947,1168.3 L 321.104,1168.3 L 321.104,1166.41 Z M 321.104,1169.11 L 319.947,1169.11 L 319.947,1173.81 L 321.104,1173.81 L 321.104,1169.11 Z M 321.104,1174.62 L 319.947,1174.62 L 319.947,1176.51 L 321.104,1176.51 L 321.104,1174.62 Z M 327.378,1166.41 L 326.219,1166.41 L 326.219,1168.3 L 327.378,1168.3 L 327.378,1166.41 Z M 327.378,1169.11 L 326.219,1169.11 L 326.219,1172.22 C 326.219,1172.44 326.038,1172.62 325.814,1172.62 C 325.591,1172.62 325.409,1172.44 325.409,1172.22 L 325.409,1164.8 L 321.915,1164.8 L 321.915,1179.74 L 323.662,1181.43 L 325.409,1179.74 L 325.409,1173.57 C 325.409,1173.34 325.591,1173.16 325.814,1173.16 C 326.038,1173.16 326.219,1173.34 326.219,1173.57 L 326.219,1173.81 L 327.378,1173.81 L 327.378,1169.11 Z M 327.378,1174.62 L 326.219,1174.62 L 326.219,1176.51 L 327.378,1176.51 L 327.378,1174.62 Z M 331.682,1164.8 L 328.187,1164.8 L 328.187,1179.74 L 329.934,1181.43 L 331.682,1179.74 L 331.682,1164.8 Z M 333.651,1166.41 L 332.492,1166.41 L 332.492,1168.3 L 333.651,1168.3 L 333.651,1166.41 Z M 333.651,1169.11 L 332.492,1169.11 L 332.492,1173.81 L 333.651,1173.81 L 333.651,1169.11 Z M 333.651,1174.62 L 332.492,1174.62 L 332.492,1176.51 L 333.651,1176.51 L 333.651,1174.62 Z" marker-start="none" marker-end="none"/>
   <ellipse rx="0.405" ry="0.405" transform="translate(336.206 1175.56)"/>
   <ellipse rx="0.405" ry="0.405" transform="translate(336.206 1167.36)"/>
   <ellipse rx="0.405" ry="0.405" transform="translate(329.932 1175.56)"/>
   <ellipse rx="0.405" ry="0.405" transform="translate(329.932 1167.36)"/>
   <ellipse rx="0.405" ry="0.405" transform="translate(323.66 1175.56)"/>
   <ellipse rx="0.405" ry="0.405" transform="translate(323.66 1167.36)"/>
   <ellipse rx="0.405" ry="0.405" transform="translate(317.389 1175.56)"/>
   <ellipse rx="0.405" ry="0.405" transform="translate(317.389 1167.36)"/>
  </g>
 </g>
</svg>
