<?xml version="1.0" standalone="no"?>
<!DOCTYPE svg PUBLIC "-//W3C//DTD SVG 1.1//EN" "http://www.w3.org/Graphics/SVG/1.1/DTD/svg11.dtd">
<!--Generator: Xara Designer (www.xara.com), SVG filter version: 6.6.0.0-->
<svg fill="none" fill-rule="evenodd" stroke="black" stroke-width="0.501" stroke-linejoin="bevel" stroke-miterlimit="10" font-family="Times New Roman" font-size="16" style="font-variant-ligatures:none" xmlns:xlink="http://www.w3.org/1999/xlink" xmlns="http://www.w3.org/2000/svg" version="1.1" overflow="visible" width="32.808pt" height="55.793pt" viewBox="474.096 -1184.2 32.808 55.793">
 <defs>
	</defs>
 <g id="Page background" transform="scale(1 -1)"/>
 <g id="MouseOff" transform="scale(1 -1)">
  <text xml:space="preserve" transform="translate(490.308 1142.01) scale(1 -1)" kerning="auto" font-family="Ubuntu" font-size="12" stroke="none" fill="#000000" stroke-width="0.47" stroke-linejoin="round" stroke-linecap="round"><tspan x="-12.869" y="0">Gate</tspan><tspan x="-17.244" y="13.453">House</tspan></text>
  <path d="M 500.334,1179.53 L 500.564,1181.36 L 500.606,1181.36 C 500.997,1181.36 501.316,1181.68 501.316,1182.07 L 501.316,1182.78 C 501.316,1183.17 500.997,1183.49 500.606,1183.49 L 499.54,1183.49 L 499.54,1184.2 L 498.829,1184.2 L 498.829,1183.49 L 497.764,1183.49 C 497.373,1183.49 497.054,1183.17 497.054,1182.78 L 497.054,1182.07 C 497.054,1181.68 497.373,1181.36 497.764,1181.36 L 497.806,1181.36 L 498.033,1179.53 C 498.09,1179.08 498.41,1178.71 498.829,1178.58 L 498.829,1177.81 L 498.118,1177.81 C 497.531,1177.81 497.053,1177.33 497.053,1176.74 C 497.053,1176.28 497.351,1175.89 497.764,1175.74 L 497.764,1175.67 C 497.369,1175.67 496.668,1176.08 496.107,1176.5 C 496.456,1176.68 496.699,1177.04 496.699,1177.45 C 496.699,1178.75 496.002,1179.58 494.924,1179.58 C 494.273,1179.58 493.846,1179.26 493.466,1178.98 C 493.138,1178.73 492.852,1178.52 492.437,1178.52 C 491.458,1178.52 490.661,1179.31 490.661,1180.29 C 490.661,1180.89 491.234,1181.36 491.727,1181.36 C 492.313,1181.36 492.792,1180.88 492.792,1180.29 C 492.792,1180.1 492.633,1179.94 492.437,1179.94 C 492.241,1179.94 492.081,1180.1 492.081,1180.29 L 492.081,1180.65 L 491.372,1180.65 L 491.372,1180.29 C 491.372,1179.7 491.85,1179.23 492.437,1179.23 C 493.024,1179.23 493.502,1179.7 493.502,1180.29 C 493.502,1181.27 492.707,1182.07 491.727,1182.07 C 491.16,1182.07 490.636,1181.77 490.307,1181.32 C 489.977,1181.77 489.455,1182.07 488.887,1182.07 C 487.906,1182.07 487.112,1181.27 487.112,1180.29 C 487.112,1179.7 487.589,1179.23 488.176,1179.23 C 488.764,1179.23 489.242,1179.7 489.242,1180.29 L 489.242,1180.65 L 488.532,1180.65 L 488.532,1180.29 C 488.532,1180.1 488.372,1179.94 488.176,1179.94 C 487.981,1179.94 487.821,1180.1 487.821,1180.29 C 487.821,1180.88 488.299,1181.36 488.887,1181.36 C 489.379,1181.36 489.953,1180.89 489.953,1180.29 C 489.953,1179.31 489.155,1178.52 488.176,1178.52 C 487.762,1178.52 487.477,1178.73 487.146,1178.98 C 486.768,1179.26 486.341,1179.58 485.69,1179.58 C 484.611,1179.58 483.915,1178.75 483.915,1177.45 C 483.915,1177.04 484.157,1176.68 484.507,1176.5 C 483.945,1176.08 483.243,1175.67 482.849,1175.67 L 482.849,1175.74 C 483.262,1175.89 483.56,1176.28 483.56,1176.74 C 483.56,1177.33 483.081,1177.81 482.494,1177.81 L 481.784,1177.81 L 481.784,1178.58 C 482.202,1178.71 482.523,1179.08 482.58,1179.53 L 482.807,1181.36 L 482.849,1181.36 C 483.241,1181.36 483.56,1181.68 483.56,1182.07 L 483.56,1182.78 C 483.56,1183.17 483.241,1183.49 482.849,1183.49 L 481.784,1183.49 L 481.784,1184.2 L 481.073,1184.2 L 481.073,1183.49 L 480.007,1183.49 C 479.616,1183.49 479.298,1183.17 479.298,1182.78 L 479.298,1182.07 C 479.298,1181.68 479.616,1181.36 480.007,1181.36 L 480.05,1181.36 L 480.278,1179.53 C 480.336,1179.08 480.655,1178.71 481.073,1178.58 L 481.073,1177.81 L 480.364,1177.81 C 479.776,1177.81 479.298,1177.33 479.298,1176.74 C 479.298,1176.28 479.597,1175.89 480.007,1175.74 L 480.007,1162.18 L 482.494,1162.18 L 482.849,1162.18 L 497.764,1162.18 L 498.119,1162.18 L 500.606,1162.18 L 500.606,1175.74 C 501.018,1175.89 501.316,1176.28 501.316,1176.74 C 501.316,1177.33 500.837,1177.81 500.25,1177.81 L 499.54,1177.81 L 499.54,1178.58 C 499.958,1178.71 500.278,1179.08 500.334,1179.53 Z M 480.007,1182.78 L 482.849,1182.78 L 482.85,1182.07 L 480.007,1182.07 Z M 482.091,1181.36 L 482.003,1180.65 L 480.854,1180.65 L 480.766,1181.36 Z M 480.943,1179.94 L 481.914,1179.94 L 481.875,1179.62 C 481.847,1179.4 481.655,1179.23 481.429,1179.23 C 481.203,1179.23 481.012,1179.4 480.983,1179.62 Z M 497.764,1174.26 C 496.877,1174.26 495.344,1175.17 494.524,1175.99 C 493.928,1176.59 492.488,1177.1 491.727,1177.1 L 490.661,1177.1 L 490.661,1177.81 L 492.081,1177.81 C 493.056,1177.81 494.391,1177.13 495.027,1176.49 C 495.559,1175.96 496.907,1174.96 497.764,1174.96 Z M 497.764,1165.73 L 497.054,1165.73 L 497.054,1173.65 C 497.3,1173.58 497.542,1173.54 497.764,1173.54 Z M 482.849,1173.54 C 483.072,1173.54 483.312,1173.58 483.56,1173.65 L 483.56,1165.73 L 482.849,1165.73 Z M 484.27,1173.91 C 484.767,1174.13 485.259,1174.43 485.69,1174.74 L 485.69,1165.73 L 484.27,1165.73 Z M 486.4,1170.35 L 486.4,1175.31 C 486.469,1175.37 486.533,1175.43 486.59,1175.49 C 486.828,1175.72 487.319,1175.98 487.821,1176.15 L 487.821,1173.36 C 486.954,1172.64 486.4,1171.56 486.4,1170.35 C 486.4,1169.14 486.954,1168.06 487.821,1167.34 L 487.821,1165.73 L 486.4,1165.73 Z M 490.661,1167.17 L 490.661,1168.93 L 491.372,1168.93 C 491.763,1168.93 492.081,1169.25 492.081,1169.64 L 492.081,1171.06 C 492.081,1171.45 491.763,1171.77 491.372,1171.77 L 490.661,1171.77 L 490.661,1173.52 C 492.257,1173.35 493.502,1171.99 493.502,1170.35 C 493.502,1168.71 492.257,1167.35 490.661,1167.17 Z M 487.112,1170.35 C 487.112,1171.99 488.356,1173.35 489.953,1173.52 L 489.953,1171.77 L 489.242,1171.77 C 488.85,1171.77 488.532,1171.45 488.532,1171.06 L 488.532,1169.64 C 488.532,1169.25 488.85,1168.93 489.242,1168.93 L 489.953,1168.93 L 489.953,1167.17 C 488.356,1167.35 487.112,1168.71 487.112,1170.35 Z M 489.953,1169.64 L 489.242,1169.64 L 489.242,1171.06 L 489.953,1171.06 Z M 490.661,1171.06 L 491.372,1171.06 L 491.372,1169.64 L 490.661,1169.64 Z M 490.661,1174.24 L 490.661,1176.39 L 491.727,1176.39 C 491.832,1176.39 491.954,1176.37 492.081,1176.35 L 492.081,1173.82 C 491.648,1174.05 491.169,1174.19 490.661,1174.24 Z M 489.953,1174.24 C 489.444,1174.19 488.965,1174.05 488.532,1173.82 L 488.532,1176.35 C 488.659,1176.37 488.782,1176.39 488.887,1176.39 L 489.953,1176.39 Z M 488.532,1166.87 C 488.965,1166.65 489.444,1166.51 489.953,1166.46 L 489.953,1165.73 L 488.532,1165.73 Z M 490.661,1166.46 C 491.169,1166.51 491.648,1166.65 492.081,1166.87 L 492.081,1165.73 L 490.661,1165.73 Z M 492.792,1167.34 C 493.659,1168.06 494.213,1169.14 494.213,1170.35 C 494.213,1171.56 493.659,1172.64 492.792,1173.36 L 492.792,1176.15 C 493.295,1175.98 493.785,1175.72 494.023,1175.49 C 494.081,1175.43 494.145,1175.37 494.213,1175.31 L 494.213,1170.35 L 494.213,1165.73 L 492.792,1165.73 Z M 494.924,1174.74 C 495.354,1174.43 495.847,1174.13 496.344,1173.91 L 496.344,1165.73 L 494.924,1165.73 Z M 495.634,1177.1 C 495.437,1177.1 495.277,1177.26 495.277,1177.45 C 495.277,1177.65 495.437,1177.81 495.634,1177.81 C 495.83,1177.81 495.988,1177.65 495.988,1177.45 C 495.988,1177.26 495.83,1177.1 495.634,1177.1 Z M 494.924,1178.87 C 495.3,1178.87 495.542,1178.72 495.701,1178.51 C 495.678,1178.51 495.656,1178.52 495.634,1178.52 C 495.131,1178.52 494.711,1178.17 494.6,1177.7 C 494.288,1177.89 493.948,1178.06 493.594,1178.19 C 493.699,1178.26 493.798,1178.34 493.894,1178.41 C 494.224,1178.66 494.509,1178.87 494.924,1178.87 Z M 490.307,1179.02 C 490.417,1178.84 490.549,1178.66 490.7,1178.52 L 489.913,1178.52 C 490.065,1178.66 490.197,1178.84 490.307,1179.02 Z M 485.69,1178.87 C 486.104,1178.87 486.39,1178.66 486.72,1178.41 C 486.815,1178.34 486.914,1178.26 487.018,1178.19 C 486.665,1178.06 486.326,1177.89 486.013,1177.7 C 485.902,1178.17 485.483,1178.52 484.98,1178.52 C 484.958,1178.52 484.935,1178.51 484.913,1178.51 C 485.072,1178.72 485.315,1178.87 485.69,1178.87 Z M 484.98,1177.81 C 485.177,1177.81 485.336,1177.65 485.336,1177.45 C 485.336,1177.26 485.177,1177.1 484.98,1177.1 C 484.783,1177.1 484.624,1177.26 484.624,1177.45 C 484.624,1177.65 484.783,1177.81 484.98,1177.81 Z M 485.587,1176.49 C 486.222,1177.13 487.556,1177.81 488.532,1177.81 L 489.953,1177.81 L 489.953,1177.1 L 488.887,1177.1 C 488.126,1177.1 486.685,1176.59 486.089,1175.99 C 485.269,1175.17 483.737,1174.26 482.849,1174.26 L 482.849,1174.96 C 483.707,1174.96 485.055,1175.96 485.587,1176.49 Z M 480.364,1177.1 L 482.494,1177.1 C 482.69,1177.1 482.849,1176.93 482.849,1176.74 C 482.849,1176.54 482.69,1176.39 482.494,1176.39 L 480.364,1176.39 C 480.167,1176.39 480.007,1176.54 480.007,1176.74 C 480.007,1176.93 480.167,1177.1 480.364,1177.1 Z M 480.718,1162.89 L 480.718,1175.67 L 482.139,1175.67 L 482.139,1162.89 Z M 482.849,1165.02 L 489.953,1165.02 L 489.953,1162.89 L 482.849,1162.89 Z M 490.661,1162.89 L 490.661,1165.02 L 497.764,1165.02 L 497.764,1162.89 Z M 498.474,1162.89 L 498.474,1175.67 L 499.895,1175.67 L 499.895,1162.89 Z M 500.606,1176.74 C 500.606,1176.54 500.446,1176.39 500.25,1176.39 L 498.119,1176.39 C 497.923,1176.39 497.764,1176.54 497.764,1176.74 C 497.764,1176.93 497.923,1177.1 498.119,1177.1 L 500.25,1177.1 C 500.446,1177.1 500.606,1176.93 500.606,1176.74 Z M 497.764,1182.78 L 500.606,1182.78 L 500.606,1182.07 L 497.764,1182.07 Z M 499.848,1181.36 L 499.758,1180.65 L 498.61,1180.65 L 498.522,1181.36 Z M 498.699,1179.94 L 499.671,1179.94 L 499.63,1179.62 C 499.602,1179.4 499.411,1179.23 499.184,1179.23 C 498.958,1179.23 498.766,1179.4 498.739,1179.62 Z" fill="#191919" stroke="none" stroke-width="0.198" stroke-linejoin="miter" stroke-linecap="round" marker-start="none" marker-end="none"/>
 </g>
</svg>
