<?xml version="1.0" standalone="no"?>
<!DOCTYPE svg PUBLIC "-//W3C//DTD SVG 1.1//EN" "http://www.w3.org/Graphics/SVG/1.1/DTD/svg11.dtd">
<!--Generator: Xara Designer (www.xara.com), SVG filter version: 6.6.0.0-->
<svg fill="none" fill-rule="evenodd" stroke="black" stroke-width="0.501" stroke-linejoin="bevel" stroke-miterlimit="10" font-family="Times New Roman" font-size="16" style="font-variant-ligatures:none" xmlns:xlink="http://www.w3.org/1999/xlink" xmlns="http://www.w3.org/2000/svg" version="1.1" overflow="visible" width="43.409pt" height="58.762pt" viewBox="640.317 -1185.14 43.409 58.762">
 <defs>
	</defs>
 <g id="Page background" transform="scale(1 -1)"/>
 <g id="MouseOff" transform="scale(1 -1)">
  <text xml:space="preserve" transform="translate(661.932 1142.09) scale(1 -1)" kerning="auto" font-family="Ubuntu" font-size="12" stroke="none" fill="#000000" stroke-width="0.47" stroke-linejoin="round" stroke-linecap="round"><tspan x="-12.455" y="0">24/7</tspan><tspan x="-22.011" y="13.453">Security</tspan></text>
  <g id="Group" fill="#191919" fill-rule="nonzero" stroke-linejoin="miter" stroke="none" stroke-width="0.046">
   <path d="M 666.391,1164.18 C 666.133,1164.18 665.924,1163.97 665.924,1163.71 C 665.924,1163.46 666.133,1163.25 666.391,1163.25 C 666.648,1163.25 666.857,1163.46 666.857,1163.71 C 666.857,1163.97 666.648,1164.18 666.391,1164.18 Z" marker-start="none" marker-end="none"/>
   <path d="M 670.799,1168.35 C 670.322,1169.04 669.657,1169.58 668.871,1169.89 L 665.447,1171.24 C 666.341,1172.12 666.857,1173.32 666.857,1174.59 C 666.857,1175.09 666.779,1175.58 666.624,1176.05 C 666.766,1176.13 666.857,1176.29 666.857,1176.46 L 666.857,1177.89 L 667.672,1179.52 L 668.467,1179.91 C 668.624,1179.99 668.726,1180.15 668.726,1180.33 L 668.726,1181.73 C 668.726,1181.93 668.597,1182.11 668.405,1182.18 L 667.079,1182.62 L 663.871,1185.04 C 663.792,1185.11 663.692,1185.14 663.59,1185.14 L 660.79,1185.14 C 660.688,1185.14 660.589,1185.11 660.509,1185.04 L 657.302,1182.62 L 655.975,1182.18 C 655.784,1182.11 655.656,1181.93 655.656,1181.73 L 655.656,1180.33 C 655.656,1180.15 655.755,1179.99 655.914,1179.91 L 656.707,1179.52 L 657.522,1177.89 L 657.522,1176.46 C 657.522,1176.29 657.613,1176.13 657.756,1176.05 C 657.601,1175.58 657.522,1175.09 657.522,1174.59 C 657.522,1173.32 658.038,1172.12 658.934,1171.24 L 655.509,1169.89 C 654.723,1169.58 654.056,1169.04 653.581,1168.35 C 653.106,1167.65 652.856,1166.83 652.856,1165.98 L 652.856,1161.71 C 652.856,1161.45 653.064,1161.24 653.321,1161.24 L 661.722,1161.24 C 661.725,1161.24 661.725,1161.24 661.725,1161.24 C 661.725,1161.24 661.725,1161.24 661.725,1161.24 L 662.654,1161.24 C 662.656,1161.24 662.656,1161.24 662.657,1161.24 C 662.657,1161.24 662.657,1161.24 662.658,1161.24 L 671.058,1161.24 C 671.317,1161.24 671.525,1161.45 671.525,1161.71 L 671.525,1165.98 C 671.525,1166.83 671.275,1167.65 670.799,1168.35 Z M 666.912,1169.66 L 664.057,1164.93 L 664.057,1166.34 C 664.057,1166.64 663.958,1166.94 663.777,1167.18 L 662.952,1168.28 C 663.336,1168.53 663.59,1168.96 663.59,1169.46 L 663.59,1170.14 C 663.938,1170.25 664.271,1170.39 664.583,1170.58 L 666.912,1169.66 Z M 657.473,1180.07 C 657.427,1180.16 657.354,1180.24 657.263,1180.28 L 656.589,1180.62 L 656.589,1181.4 L 657.67,1181.76 C 657.718,1181.77 657.762,1181.8 657.805,1181.83 L 660.947,1184.21 L 663.433,1184.21 L 666.576,1181.83 C 666.617,1181.8 666.661,1181.77 666.71,1181.76 L 667.791,1181.4 L 667.791,1180.62 L 667.115,1180.28 C 667.025,1180.24 666.952,1180.16 666.907,1180.07 L 666.102,1178.46 L 658.278,1178.46 L 657.473,1180.07 Z M 658.456,1177.53 L 665.924,1177.53 L 665.924,1176.8 L 664.704,1176.39 C 663.888,1176.13 663.041,1175.99 662.184,1175.99 C 661.756,1175.99 661.324,1176.03 660.9,1176.09 C 660.479,1176.16 660.059,1176.26 659.65,1176.4 L 658.748,1176.7 C 658.708,1176.74 658.659,1176.78 658.6,1176.81 C 658.552,1176.83 658.504,1176.85 658.456,1176.86 L 658.456,1177.53 Z M 658.456,1174.59 C 658.456,1174.99 658.518,1175.38 658.64,1175.75 L 659.357,1175.51 C 659.813,1175.36 660.282,1175.25 660.753,1175.17 C 661.224,1175.1 661.706,1175.06 662.184,1175.06 C 663.141,1175.06 664.087,1175.21 664.994,1175.51 L 665.739,1175.75 C 665.861,1175.38 665.924,1174.99 665.924,1174.59 C 665.924,1173.35 665.312,1172.2 664.287,1171.5 C 664.28,1171.5 664.273,1171.49 664.266,1171.49 C 663.886,1171.23 663.466,1171.05 663.02,1170.95 C 662.479,1170.83 661.901,1170.83 661.36,1170.95 C 660.91,1171.05 660.49,1171.23 660.106,1171.49 C 659.073,1172.19 658.456,1173.35 658.456,1174.59 Z M 662.657,1169.94 L 662.657,1169.46 C 662.657,1169.2 662.447,1168.99 662.19,1168.99 C 662.066,1168.99 661.949,1169.04 661.861,1169.13 C 661.772,1169.21 661.725,1169.33 661.725,1169.46 L 661.725,1169.94 C 661.877,1169.93 662.034,1169.92 662.19,1169.92 C 662.347,1169.92 662.502,1169.93 662.657,1169.94 Z M 659.796,1170.58 C 660.11,1170.39 660.443,1170.25 660.79,1170.14 L 660.79,1169.46 C 660.79,1169.08 660.935,1168.73 661.2,1168.46 C 661.271,1168.39 661.345,1168.33 661.427,1168.28 L 660.603,1167.18 C 660.422,1166.94 660.323,1166.64 660.323,1166.34 L 660.323,1164.93 L 657.467,1169.66 L 659.796,1170.58 Z M 653.789,1162.17 L 653.789,1165.98 C 653.789,1167.33 654.599,1168.53 655.852,1169.02 L 656.587,1169.31 L 660.351,1163.08 L 660.896,1162.17 L 653.789,1162.17 Z M 663.125,1163.38 L 662.393,1162.17 L 661.987,1162.17 L 661.257,1163.38 L 661.257,1166.34 C 661.257,1166.44 661.29,1166.54 661.351,1166.62 L 662.19,1167.74 L 663.03,1166.62 C 663.091,1166.54 663.125,1166.44 663.125,1166.34 L 663.125,1163.38 Z M 663.484,1162.17 L 667.793,1169.31 L 668.526,1169.02 C 669.781,1168.53 670.592,1167.33 670.592,1165.98 L 670.592,1162.17 L 663.484,1162.17 Z" marker-start="none" marker-end="none"/>
   <path d="M 662.19,1183.13 C 661.162,1183.13 660.323,1182.29 660.323,1181.26 C 660.323,1180.24 661.162,1179.4 662.19,1179.4 C 663.219,1179.4 664.057,1180.24 664.057,1181.26 C 664.057,1182.29 663.219,1183.13 662.19,1183.13 Z M 662.19,1180.33 C 661.675,1180.33 661.257,1180.75 661.257,1181.26 C 661.257,1181.78 661.675,1182.2 662.19,1182.2 C 662.705,1182.2 663.125,1181.78 663.125,1181.26 C 663.125,1180.75 662.705,1180.33 662.19,1180.33 Z" marker-start="none" marker-end="none"/>
   <path d="M 669.192,1164.18 L 668.258,1164.18 C 668.001,1164.18 667.791,1163.97 667.791,1163.71 C 667.791,1163.46 668.001,1163.25 668.258,1163.25 L 669.192,1163.25 C 669.449,1163.25 669.658,1163.46 669.658,1163.71 C 669.658,1163.97 669.449,1164.18 669.192,1164.18 Z" marker-start="none" marker-end="none"/>
  </g>
 </g>
</svg>
