<?xml version="1.0" standalone="no"?>
<!DOCTYPE svg PUBLIC "-//W3C//DTD SVG 1.1//EN" "http://www.w3.org/Graphics/SVG/1.1/DTD/svg11.dtd">
<!--Generator: Xara Designer (www.xara.com), SVG filter version: 6.6.0.0-->
<svg fill="none" fill-rule="evenodd" stroke="black" stroke-width="0.501" stroke-linejoin="bevel" stroke-miterlimit="10" font-family="Times New Roman" font-size="16" style="font-variant-ligatures:none" xmlns:xlink="http://www.w3.org/1999/xlink" xmlns="http://www.w3.org/2000/svg" version="1.1" overflow="visible" width="36.037pt" height="56.709pt" viewBox="809.348 -1184.57 36.037 56.709">
 <defs>
	</defs>
 <g id="Page background" transform="scale(1 -1)"/>
 <g id="MouseOff" transform="scale(1 -1)">
  <text xml:space="preserve" transform="translate(827.277 1143.57) scale(1 -1)" kerning="auto" font-family="Ubuntu" font-size="12" stroke="none" fill="#000000" stroke-width="0.47" stroke-linejoin="round" stroke-linecap="round"><tspan x="-17.315" y="0">Power</tspan><tspan x="-18.325" y="13.453">Supply</tspan></text>
  <path d="M 836.95,1177.19 L 830.75,1178.96 L 830.75,1182.06 L 834.684,1182.06 L 834.684,1181.35 L 834.098,1181.35 C 833.913,1181.35 833.765,1181.2 833.765,1181.01 L 833.765,1179.63 C 833.765,1179.45 833.913,1179.3 834.098,1179.3 L 835.938,1179.3 C 836.122,1179.3 836.271,1179.45 836.271,1179.63 L 836.271,1181.01 C 836.271,1181.2 836.122,1181.35 835.938,1181.35 L 835.351,1181.35 L 835.351,1182.06 L 836.858,1182.06 C 837.025,1182.06 837.165,1182.18 837.189,1182.35 C 837.212,1182.51 837.11,1182.67 836.95,1182.71 L 830.515,1184.55 C 830.515,1184.55 830.515,1184.55 830.515,1184.55 L 830.509,1184.55 C 830.505,1184.55 830.503,1184.55 830.5,1184.56 C 830.492,1184.56 830.485,1184.56 830.479,1184.56 C 830.472,1184.56 830.469,1184.56 830.462,1184.56 C 830.458,1184.57 830.452,1184.57 830.446,1184.57 C 830.44,1184.57 830.433,1184.57 830.424,1184.57 C 830.423,1184.57 830.42,1184.57 830.416,1184.57 L 830.41,1184.57 C 830.41,1184.57 830.408,1184.57 830.408,1184.57 L 824.903,1184.57 C 824.903,1184.57 824.902,1184.57 824.902,1184.57 L 824.895,1184.57 C 824.892,1184.57 824.891,1184.57 824.887,1184.57 C 824.879,1184.57 824.872,1184.57 824.865,1184.57 C 824.858,1184.57 824.853,1184.57 824.849,1184.56 C 824.843,1184.56 824.837,1184.56 824.833,1184.56 C 824.825,1184.56 824.819,1184.56 824.811,1184.56 C 824.808,1184.55 824.805,1184.55 824.803,1184.55 L 824.796,1184.55 C 824.795,1184.55 824.795,1184.55 824.795,1184.55 L 818.362,1182.71 C 818.201,1182.67 818.099,1182.51 818.122,1182.35 C 818.144,1182.18 818.285,1182.06 818.453,1182.06 L 819.96,1182.06 L 819.96,1181.35 L 819.374,1181.35 C 819.189,1181.35 819.039,1181.2 819.039,1181.01 L 819.039,1179.63 C 819.039,1179.45 819.189,1179.3 819.374,1179.3 L 821.213,1179.3 C 821.398,1179.3 821.547,1179.45 821.547,1179.63 L 821.547,1181.01 C 821.547,1181.2 821.398,1181.35 821.213,1181.35 L 820.627,1181.35 L 820.627,1182.06 L 824.561,1182.06 L 824.561,1178.96 L 818.362,1177.19 C 818.201,1177.15 818.099,1176.99 818.122,1176.83 C 818.144,1176.66 818.285,1176.54 818.453,1176.54 L 819.96,1176.54 L 819.96,1175.83 L 819.374,1175.83 C 819.189,1175.83 819.039,1175.68 819.039,1175.49 L 819.039,1174.11 C 819.039,1173.93 819.189,1173.78 819.374,1173.78 L 821.213,1173.78 C 821.398,1173.78 821.547,1173.93 821.547,1174.11 L 821.547,1175.49 C 821.547,1175.68 821.398,1175.83 821.213,1175.83 L 820.627,1175.83 L 820.627,1176.54 L 824.561,1176.54 L 824.561,1173.24 L 823.195,1168.46 C 823.195,1168.46 823.195,1168.46 823.195,1168.46 L 823.193,1168.45 C 823.193,1168.45 823.193,1168.45 823.193,1168.45 L 823.192,1168.45 C 823.192,1168.45 823.191,1168.44 823.191,1168.44 L 821.882,1163.86 L 821.213,1163.86 C 821.029,1163.86 820.879,1163.71 820.879,1163.53 L 820.879,1162.48 L 820.198,1162.48 C 820.014,1162.48 819.864,1162.33 819.864,1162.15 C 819.864,1161.96 820.014,1161.81 820.198,1161.81 L 821.213,1161.81 L 834.098,1161.81 L 835.114,1161.81 C 835.298,1161.81 835.448,1161.96 835.448,1162.15 C 835.448,1162.33 835.298,1162.48 835.114,1162.48 L 834.432,1162.48 L 834.432,1163.53 C 834.432,1163.71 834.282,1163.86 834.098,1163.86 L 833.43,1163.86 L 832.12,1168.44 C 832.119,1168.44 832.119,1168.45 832.119,1168.45 L 832.115,1168.46 C 832.115,1168.46 832.115,1168.46 832.115,1168.46 L 830.75,1173.24 L 830.75,1176.54 L 834.684,1176.54 L 834.684,1175.83 L 834.098,1175.83 C 833.913,1175.83 833.765,1175.68 833.765,1175.49 L 833.765,1174.11 C 833.765,1173.93 833.913,1173.78 834.098,1173.78 L 835.938,1173.78 C 836.122,1173.78 836.271,1173.93 836.271,1174.11 L 836.271,1175.49 C 836.271,1175.68 836.122,1175.83 835.938,1175.83 L 835.351,1175.83 L 835.351,1176.54 L 836.858,1176.54 C 837.025,1176.54 837.165,1176.66 837.189,1176.83 C 837.212,1176.99 837.11,1177.15 836.95,1177.19 Z M 835.605,1180.68 L 835.605,1179.97 L 834.432,1179.97 L 834.432,1180.68 L 835.605,1180.68 Z M 830.75,1183.79 L 834.474,1182.73 L 830.75,1182.73 L 830.75,1183.79 Z M 820.881,1180.68 L 820.881,1179.97 L 819.706,1179.97 L 819.706,1180.68 L 820.881,1180.68 Z M 820.881,1175.16 L 820.881,1174.44 L 819.706,1174.44 L 819.706,1175.16 L 820.881,1175.16 Z M 825.229,1183.9 L 830.082,1183.9 L 830.082,1182.73 L 825.229,1182.73 L 825.229,1183.9 Z M 830.082,1182.06 L 830.082,1179.34 L 825.997,1182.06 L 830.082,1182.06 Z M 825.229,1181.77 L 829.314,1179.05 L 825.229,1179.05 L 825.229,1181.77 Z M 825.229,1178.38 L 830.082,1178.38 L 830.082,1177.2 L 825.229,1177.2 L 825.229,1178.38 Z M 824.574,1168.69 L 827.655,1170.85 L 830.737,1168.69 L 824.574,1168.69 Z M 830.383,1168.03 L 827.655,1166.66 L 824.928,1168.03 L 830.383,1168.03 Z M 825.954,1172.86 L 829.357,1172.86 L 827.655,1171.67 L 825.954,1172.86 Z M 830.082,1176.54 L 830.082,1173.81 L 825.997,1176.54 L 830.082,1176.54 Z M 825.229,1176.25 L 829.314,1173.52 L 825.229,1173.52 L 825.229,1176.25 Z M 820.836,1182.73 L 824.561,1183.79 L 824.561,1182.73 L 820.836,1182.73 Z M 820.836,1177.2 L 824.561,1178.27 L 824.561,1177.2 L 820.836,1177.2 Z M 825.087,1172.65 L 827.074,1171.26 L 824.093,1169.17 L 825.087,1172.65 Z M 823.726,1167.88 L 826.909,1166.29 L 822.663,1164.17 L 823.726,1167.88 Z M 833.177,1163.19 L 833.177,1163.19 L 833.177,1163.19 C 833.177,1163.19 833.177,1163.19 833.179,1163.19 L 833.765,1163.19 L 833.765,1162.48 L 833.765,1162.48 L 821.547,1162.48 L 821.547,1163.19 L 822.133,1163.19 C 822.133,1163.19 822.135,1163.19 822.135,1163.19 C 822.135,1163.19 822.135,1163.19 822.136,1163.19 L 822.14,1163.19 C 822.141,1163.19 822.142,1163.19 822.142,1163.19 L 825.286,1163.19 C 825.472,1163.19 825.62,1163.34 825.62,1163.53 C 825.62,1163.71 825.472,1163.86 825.286,1163.86 L 823.548,1163.86 L 827.655,1165.92 L 831.763,1163.86 L 826.776,1163.86 C 826.59,1163.86 826.441,1163.71 826.441,1163.53 C 826.441,1163.34 826.59,1163.19 826.776,1163.19 L 833.175,1163.19 C 833.177,1163.19 833.177,1163.19 833.177,1163.19 Z M 832.648,1164.17 L 828.402,1166.29 L 831.585,1167.88 L 832.648,1164.17 Z M 831.217,1169.17 L 828.238,1171.26 L 830.224,1172.65 L 831.217,1169.17 Z M 830.75,1177.2 L 830.75,1178.27 L 834.474,1177.2 L 830.75,1177.2 Z M 835.605,1175.16 L 835.605,1174.44 L 834.432,1174.44 L 834.432,1175.16 L 835.605,1175.16 Z" fill="#191919" stroke="none" stroke-width="0.208" stroke-linejoin="miter" stroke-linecap="round" marker-start="none" marker-end="none"/>
 </g>
</svg>
