<?xml version="1.0" standalone="no"?>
<!DOCTYPE svg PUBLIC "-//W3C//DTD SVG 1.1//EN" "http://www.w3.org/Graphics/SVG/1.1/DTD/svg11.dtd">
<!--Generator: Xara Designer (www.xara.com), SVG filter version: 6.6.0.0-->
<svg fill="none" fill-rule="evenodd" stroke="black" stroke-width="0.501" stroke-linejoin="bevel" stroke-miterlimit="10" font-family="Times New Roman" font-size="16" style="font-variant-ligatures:none" xmlns:xlink="http://www.w3.org/1999/xlink" xmlns="http://www.w3.org/2000/svg" version="1.1" overflow="visible" width="55.446pt" height="55.519pt" viewBox="956.464 -1183.71 55.446 55.519">
 <defs>
	</defs>
 <g id="Page background" transform="scale(1 -1)"/>
 <g id="MouseOff" transform="scale(1 -1)">
  <text xml:space="preserve" transform="translate(984.318 1141.8) scale(1 -1)" kerning="auto" font-family="Ubuntu" stroke-linecap="round" stroke-linejoin="round" stroke-width="0.47" fill="#000000" stroke="none" font-size="12"><tspan x="-28.55" y="0">Good road</tspan><tspan x="-22.788" y="13.453">network</tspan></text>
  <g id="Group" fill="#191919" stroke-linejoin="miter" stroke-linecap="round" stroke="none" stroke-width="0.225">
   <path d="M 983.064,1181.15 C 982.98,1181.3 982.79,1181.35 982.644,1181.27 C 982.641,1181.26 982.555,1181.21 982.417,1181.12 C 982.276,1181.03 982.237,1180.84 982.328,1180.7 C 982.422,1180.56 982.615,1180.52 982.756,1180.61 C 982.874,1180.68 982.947,1180.73 982.949,1180.73 C 983.097,1180.81 983.149,1181 983.064,1181.15 Z" marker-start="none" marker-end="none"/>
   <path d="M 985.624,1166.65 C 985.52,1166.53 985.41,1166.41 985.298,1166.29 C 985.182,1166.16 985.19,1165.97 985.316,1165.85 C 985.438,1165.74 985.635,1165.74 985.75,1165.87 C 985.869,1166 985.984,1166.13 986.095,1166.26 C 986.205,1166.38 986.19,1166.58 986.059,1166.69 C 985.929,1166.8 985.735,1166.78 985.624,1166.65 Z" marker-start="none" marker-end="none"/>
   <path d="M 987.201,1168.54 C 987.046,1168.61 986.862,1168.55 986.788,1168.39 C 986.723,1168.26 986.645,1168.11 986.564,1167.97 C 986.481,1167.82 986.529,1167.63 986.678,1167.55 C 986.827,1167.46 987.015,1167.52 987.1,1167.66 C 987.189,1167.82 987.271,1167.97 987.345,1168.13 C 987.419,1168.28 987.354,1168.46 987.201,1168.54 Z" marker-start="none" marker-end="none"/>
   <path d="M 987.834,1169.84 C 987.842,1169.94 987.845,1170.04 987.845,1170.14 C 987.845,1170.22 987.843,1170.3 987.837,1170.39 C 987.825,1170.56 987.676,1170.68 987.506,1170.67 C 987.336,1170.66 987.209,1170.51 987.222,1170.34 C 987.227,1170.27 987.229,1170.2 987.229,1170.14 C 987.229,1170.06 987.225,1169.97 987.218,1169.89 C 987.205,1169.72 987.332,1169.57 987.501,1169.56 C 987.672,1169.54 987.821,1169.67 987.834,1169.84 Z" marker-start="none" marker-end="none"/>
   <path d="M 986.918,1172.53 C 986.808,1172.66 986.613,1172.67 986.483,1172.56 C 986.353,1172.45 986.339,1172.26 986.45,1172.13 C 986.554,1172.01 986.648,1171.88 986.729,1171.76 C 986.823,1171.62 987.015,1171.58 987.156,1171.67 C 987.3,1171.77 987.338,1171.96 987.246,1172.1 C 987.147,1172.25 987.038,1172.39 986.918,1172.53 Z" marker-start="none" marker-end="none"/>
   <path d="M 985.578,1173.67 C 985.435,1173.76 985.287,1173.85 985.132,1173.93 C 984.983,1174.02 984.796,1173.97 984.713,1173.82 C 984.628,1173.67 984.68,1173.48 984.829,1173.4 C 984.972,1173.32 985.111,1173.23 985.244,1173.15 C 985.385,1173.06 985.578,1173.1 985.67,1173.24 C 985.762,1173.38 985.722,1173.58 985.578,1173.67 Z" marker-start="none" marker-end="none"/>
   <path d="M 983.185,1174.91 C 983.037,1175 982.849,1174.94 982.767,1174.79 C 982.683,1174.65 982.736,1174.46 982.885,1174.38 C 983.029,1174.29 983.182,1174.21 983.34,1174.13 C 983.491,1174.06 983.675,1174.12 983.754,1174.27 C 983.833,1174.42 983.771,1174.61 983.618,1174.68 C 983.468,1174.76 983.323,1174.84 983.185,1174.91 Z" marker-start="none" marker-end="none"/>
   <path d="M 981.451,1175.35 C 981.581,1175.24 981.776,1175.25 981.886,1175.38 C 981.996,1175.51 981.98,1175.71 981.85,1175.82 C 981.725,1175.92 981.609,1176.03 981.505,1176.14 C 981.387,1176.26 981.191,1176.26 981.07,1176.15 C 980.947,1176.03 980.945,1175.83 981.064,1175.71 C 981.18,1175.59 981.311,1175.46 981.451,1175.35 Z" marker-start="none" marker-end="none"/>
   <path d="M 980.419,1178.16 C 980.249,1178.17 980.107,1178.03 980.103,1177.86 C 980.102,1177.84 980.102,1177.82 980.102,1177.8 C 980.102,1177.63 980.12,1177.45 980.154,1177.29 C 980.19,1177.12 980.355,1177.02 980.52,1177.05 C 980.686,1177.09 980.793,1177.25 980.758,1177.42 C 980.731,1177.54 980.719,1177.67 980.719,1177.8 C 980.719,1177.81 980.719,1177.83 980.719,1177.85 C 980.725,1178.02 980.59,1178.16 980.419,1178.16 Z" marker-start="none" marker-end="none"/>
   <path d="M 980.813,1179.15 C 980.951,1179.05 981.144,1179.08 981.243,1179.22 C 981.332,1179.34 981.432,1179.46 981.539,1179.58 C 981.654,1179.71 981.643,1179.9 981.517,1180.02 C 981.39,1180.13 981.196,1180.12 981.083,1179.99 C 980.958,1179.86 980.845,1179.72 980.744,1179.58 C 980.644,1179.44 980.675,1179.25 980.813,1179.15 Z" marker-start="none" marker-end="none"/>
   <path d="M 984.107,1165.16 C 983.992,1165.07 983.925,1165.01 983.924,1165.01 C 983.789,1164.91 983.763,1164.72 983.865,1164.58 C 983.969,1164.44 984.163,1164.42 984.299,1164.52 C 984.301,1164.52 984.377,1164.58 984.501,1164.68 C 984.631,1164.79 984.649,1164.99 984.542,1165.12 C 984.432,1165.25 984.239,1165.27 984.107,1165.16 Z" marker-start="none" marker-end="none"/>
   <path d="M 985.332,1162.67 L 991.337,1162.67 C 991.853,1162.67 992.321,1162.97 992.561,1163.46 C 995.355,1169.22 994.714,1174.4 988.551,1176.3 C 986.567,1176.92 984.18,1177.92 984.081,1179.21 C 984.001,1180.24 985.37,1181.45 988.15,1182.82 C 988.59,1183.03 988.441,1183.71 987.956,1183.71 C 987.302,1183.71 986.402,1183.71 985.718,1183.71 C 985.332,1183.71 984.956,1183.63 984.603,1183.45 C 983.741,1183.03 982.605,1182.43 981.506,1181.71 C 978.242,1179.88 976.57,1178.11 976.538,1176.44 C 976.515,1175.3 977.268,1174.25 978.77,1173.34 C 980.13,1172.5 980.818,1171.57 980.818,1170.56 C 980.821,1167.87 975.994,1164.91 974.409,1163.93 C 973.837,1163.58 974.077,1162.67 974.734,1162.67 L 983.892,1162.67 C 984.063,1162.67 984.202,1162.81 984.202,1162.97 C 984.202,1163.14 984.063,1163.28 983.892,1163.28 L 977.079,1163.28 C 982.33,1166.73 985.551,1171.08 980.191,1174.36 C 976.85,1176.41 978.24,1178.74 981.484,1180.96 C 982.663,1181.76 983.935,1182.44 984.874,1182.9 C 985.142,1183.03 985.427,1183.1 985.718,1183.1 L 986.538,1183.1 C 984.903,1182.21 982.509,1180.65 982.608,1178.79 C 982.645,1178.08 983.049,1177.41 983.804,1176.79 C 984.603,1176.14 985.83,1175.53 987.448,1174.98 C 990.261,1174.02 991.799,1172.42 992.016,1170.24 C 992.035,1170.07 992.186,1169.95 992.355,1169.97 C 992.524,1169.98 992.648,1170.13 992.632,1170.3 C 992.386,1172.75 990.709,1174.51 987.647,1175.56 C 984.816,1176.53 983.285,1177.66 983.223,1178.83 C 983.199,1179.26 983.371,1179.67 983.61,1180.03 C 982.691,1177.79 986.048,1176.43 988.368,1175.71 C 990.712,1174.99 992.276,1173.76 993.014,1172.06 C 994.259,1169.18 992.918,1165.61 992.007,1163.73 C 991.871,1163.45 991.614,1163.28 991.337,1163.28 L 990.338,1163.28 C 991.405,1164.9 992.369,1166.88 992.607,1168.8 C 992.627,1168.96 992.507,1169.12 992.338,1169.14 C 992.169,1169.16 992.016,1169.04 991.995,1168.87 C 991.875,1167.91 991.404,1165.91 989.596,1163.28 L 985.332,1163.28 C 985.162,1163.28 985.024,1163.14 985.024,1162.97 C 985.024,1162.81 985.162,1162.67 985.332,1162.67 Z M 975.93,1163.28 L 974.734,1163.28 C 974.73,1163.28 974.73,1163.28 974.73,1163.28 L 974.73,1163.28 C 974.724,1163.29 974.705,1163.31 974.704,1163.35 C 974.704,1163.39 974.724,1163.41 974.73,1163.41 C 977.609,1165.17 981.436,1167.84 981.435,1170.56 C 981.435,1171.8 980.646,1172.91 979.09,1173.86 C 977.111,1175.07 976.502,1176.48 977.971,1178.27 C 977.096,1176.46 978.033,1175 979.731,1173.92 C 979.854,1173.84 979.892,1173.82 980.019,1173.74 C 985.039,1170.54 980.986,1166.39 975.93,1163.28 Z" marker-start="none" marker-end="none"/>
  </g>
 </g>
</svg>
