<?xml version="1.0" standalone="no"?>
<!DOCTYPE svg PUBLIC "-//W3C//DTD SVG 1.1//EN" "http://www.w3.org/Graphics/SVG/1.1/DTD/svg11.dtd">
<!--Generator: Xara Designer (www.xara.com), SVG filter version: 6.6.0.0-->
<svg fill="none" fill-rule="evenodd" stroke="black" stroke-width="0.501" stroke-linejoin="bevel" stroke-miterlimit="10" font-family="Times New Roman" font-size="16" style="font-variant-ligatures:none" xmlns:xlink="http://www.w3.org/1999/xlink" xmlns="http://www.w3.org/2000/svg" version="1.1" overflow="visible" width="47.61pt" height="56.25pt" viewBox="1120.59 -1183.71 47.61 56.25">
 <defs>
	</defs>
 <g id="Page background" transform="scale(1 -1)"/>
 <g id="MouseOff" transform="scale(1 -1)">
  <text xml:space="preserve" transform="translate(1144.2 1143.17) scale(1 -1)" kerning="auto" font-family="Ubuntu" font-size="12" stroke="none" fill="#000000" stroke-width="0.47" stroke-linejoin="round" stroke-linecap="round"><tspan x="-24.645" y="0">Drainage</tspan><tspan x="-19.203" y="13.453">system</tspan></text>
  <g id="Group" fill="#191919" stroke-linejoin="miter" stroke-linecap="round" stroke="none" stroke-width="0.199">
   <path d="M 1154.65,1183.71 L 1134.17,1183.71 C 1134.01,1183.71 1133.89,1183.58 1133.89,1183.43 L 1133.89,1162.95 C 1133.89,1162.8 1134.01,1162.67 1134.17,1162.67 L 1154.65,1162.67 C 1154.8,1162.67 1154.93,1162.8 1154.93,1162.95 L 1154.93,1183.43 C 1154.93,1183.58 1154.8,1183.71 1154.65,1183.71 Z M 1154.36,1163.24 L 1134.46,1163.24 L 1134.46,1183.14 L 1154.36,1183.14 Z" marker-start="none" marker-end="none"/>
   <path d="M 1144.41,1164.79 C 1149.05,1164.79 1152.81,1168.55 1152.81,1173.19 C 1152.81,1177.83 1149.05,1181.59 1144.41,1181.59 C 1139.77,1181.59 1136.01,1177.83 1136.01,1173.19 C 1136.01,1168.55 1139.77,1164.79 1144.41,1164.79 Z M 1144.41,1181.01 C 1148.73,1181.01 1152.23,1177.51 1152.23,1173.19 C 1152.23,1168.87 1148.73,1165.37 1144.41,1165.37 C 1140.09,1165.37 1136.58,1168.87 1136.58,1173.19 C 1136.59,1177.51 1140.09,1181.01 1144.41,1181.01 Z" marker-start="none" marker-end="none"/>
   <path d="M 1140.55,1178.09 L 1148.27,1178.09 C 1148.39,1178.09 1148.5,1178.17 1148.54,1178.28 C 1148.58,1178.4 1148.54,1178.53 1148.44,1178.6 C 1146.05,1180.39 1142.77,1180.39 1140.37,1178.6 C 1140.27,1178.53 1140.23,1178.4 1140.27,1178.28 C 1140.31,1178.17 1140.42,1178.09 1140.55,1178.09 Z M 1144.41,1179.37 C 1145.41,1179.37 1146.39,1179.13 1147.28,1178.66 L 1141.54,1178.66 C 1142.42,1179.13 1143.41,1179.37 1144.41,1179.37 Z" marker-start="none" marker-end="none"/>
   <path d="M 1138.35,1175.17 L 1150.46,1175.17 C 1150.56,1175.17 1150.65,1175.22 1150.7,1175.3 C 1150.75,1175.38 1150.76,1175.47 1150.73,1175.56 C 1150.56,1176.03 1150.33,1176.48 1150.05,1176.9 C 1150,1176.98 1149.91,1177.03 1149.81,1177.03 L 1139.01,1177.03 C 1138.91,1177.03 1138.82,1176.98 1138.77,1176.9 C 1138.49,1176.48 1138.26,1176.03 1138.08,1175.56 C 1138.05,1175.47 1138.06,1175.38 1138.12,1175.3 C 1138.17,1175.22 1138.26,1175.17 1138.35,1175.17 Z M 1139.16,1176.46 L 1149.65,1176.46 C 1149.79,1176.23 1149.92,1175.99 1150.03,1175.75 L 1138.79,1175.75 C 1138.9,1175.99 1139.02,1176.23 1139.16,1176.46 Z" marker-start="none" marker-end="none"/>
   <path d="M 1137.69,1172.52 C 1137.7,1172.37 1137.82,1172.26 1137.97,1172.26 L 1150.84,1172.26 C 1150.99,1172.26 1151.12,1172.37 1151.13,1172.52 C 1151.15,1172.75 1151.16,1172.97 1151.16,1173.19 C 1151.16,1173.41 1151.15,1173.62 1151.13,1173.86 C 1151.12,1174.01 1150.99,1174.12 1150.84,1174.12 L 1137.97,1174.12 C 1137.82,1174.12 1137.7,1174.01 1137.69,1173.86 C 1137.66,1173.62 1137.65,1173.41 1137.65,1173.19 C 1137.65,1172.97 1137.66,1172.75 1137.69,1172.52 Z M 1138.24,1173.54 L 1150.58,1173.54 C 1150.58,1173.42 1150.59,1173.31 1150.59,1173.19 C 1150.59,1173.07 1150.58,1172.95 1150.58,1172.84 L 1138.24,1172.84 C 1138.23,1172.95 1138.23,1173.07 1138.23,1173.19 C 1138.23,1173.31 1138.23,1173.42 1138.24,1173.54 Z" marker-start="none" marker-end="none"/>
   <path d="M 1150.46,1171.2 L 1138.35,1171.2 C 1138.26,1171.2 1138.17,1171.16 1138.12,1171.08 C 1138.06,1171 1138.05,1170.91 1138.08,1170.82 C 1138.26,1170.35 1138.49,1169.9 1138.77,1169.48 C 1138.82,1169.4 1138.91,1169.35 1139.01,1169.35 L 1149.81,1169.35 C 1149.91,1169.35 1150,1169.4 1150.05,1169.48 C 1150.33,1169.9 1150.56,1170.35 1150.73,1170.82 C 1150.76,1170.91 1150.75,1171 1150.7,1171.08 C 1150.65,1171.16 1150.56,1171.2 1150.46,1171.2 Z M 1149.65,1169.92 L 1139.16,1169.92 C 1139.02,1170.15 1138.9,1170.39 1138.79,1170.63 L 1150.03,1170.63 C 1149.92,1170.39 1149.79,1170.15 1149.65,1169.92 Z" marker-start="none" marker-end="none"/>
   <path d="M 1148.27,1168.29 L 1140.55,1168.29 C 1140.42,1168.29 1140.31,1168.21 1140.27,1168.1 C 1140.23,1167.98 1140.27,1167.85 1140.37,1167.78 C 1142.77,1165.99 1146.05,1165.99 1148.44,1167.78 C 1148.54,1167.85 1148.58,1167.98 1148.54,1168.1 C 1148.5,1168.21 1148.39,1168.29 1148.27,1168.29 Z M 1144.41,1167.01 C 1143.41,1167.01 1142.42,1167.25 1141.54,1167.72 L 1147.28,1167.72 C 1146.39,1167.25 1145.41,1167.01 1144.41,1167.01 Z" marker-start="none" marker-end="none"/>
   <path d="M 1151.5,1180 L 1153,1180 C 1153.07,1180 1153.15,1180.03 1153.2,1180.08 C 1153.26,1180.14 1153.29,1180.21 1153.29,1180.29 L 1153.29,1181.78 C 1153.29,1181.94 1153.16,1182.07 1153,1182.07 L 1151.5,1182.07 C 1151.35,1182.07 1151.22,1181.94 1151.22,1181.78 L 1151.22,1180.29 C 1151.22,1180.21 1151.25,1180.14 1151.3,1180.08 C 1151.36,1180.03 1151.43,1180 1151.5,1180 Z M 1151.79,1181.49 L 1152.71,1181.49 L 1152.71,1180.57 L 1151.79,1180.57 Z" marker-start="none" marker-end="none"/>
   <path d="M 1135.82,1180 L 1137.31,1180 C 1137.39,1180 1137.46,1180.03 1137.52,1180.08 C 1137.57,1180.14 1137.6,1180.21 1137.6,1180.29 L 1137.6,1181.78 C 1137.6,1181.94 1137.47,1182.07 1137.31,1182.07 L 1135.82,1182.07 C 1135.66,1182.07 1135.53,1181.94 1135.53,1181.78 L 1135.53,1180.29 C 1135.53,1180.21 1135.56,1180.14 1135.61,1180.08 C 1135.67,1180.03 1135.74,1180 1135.82,1180 Z M 1136.11,1181.49 L 1137.02,1181.49 L 1137.02,1180.57 L 1136.11,1180.57 Z" marker-start="none" marker-end="none"/>
   <path d="M 1153,1166.38 L 1151.5,1166.38 C 1151.43,1166.38 1151.36,1166.35 1151.3,1166.3 C 1151.25,1166.24 1151.22,1166.17 1151.22,1166.09 L 1151.22,1164.6 C 1151.22,1164.44 1151.35,1164.31 1151.5,1164.31 L 1153,1164.31 C 1153.16,1164.31 1153.29,1164.44 1153.29,1164.6 L 1153.29,1166.09 C 1153.29,1166.17 1153.26,1166.24 1153.2,1166.3 C 1153.15,1166.35 1153.07,1166.38 1153,1166.38 Z M 1152.71,1164.89 L 1151.79,1164.89 L 1151.79,1165.8 L 1152.71,1165.8 Z" marker-start="none" marker-end="none"/>
   <path d="M 1135.82,1164.31 L 1137.31,1164.31 C 1137.47,1164.31 1137.6,1164.44 1137.6,1164.6 L 1137.6,1166.09 C 1137.6,1166.17 1137.57,1166.24 1137.52,1166.3 C 1137.46,1166.35 1137.39,1166.38 1137.31,1166.38 L 1135.82,1166.38 C 1135.74,1166.38 1135.67,1166.35 1135.61,1166.3 C 1135.56,1166.24 1135.53,1166.17 1135.53,1166.09 L 1135.53,1164.6 C 1135.53,1164.44 1135.66,1164.31 1135.82,1164.31 Z M 1136.11,1165.8 L 1137.02,1165.8 L 1137.02,1164.89 L 1136.11,1164.89 Z" marker-start="none" marker-end="none"/>
  </g>
 </g>
</svg>
