<?xml version="1.0" standalone="no"?>
<!DOCTYPE svg PUBLIC "-//W3C//DTD SVG 1.1//EN" "http://www.w3.org/Graphics/SVG/1.1/DTD/svg11.dtd">
<!--Generator: Xara Designer (www.xara.com), SVG filter version: 6.5.0.22-->
<svg fill="none" fill-rule="evenodd" stroke="black" stroke-width="0.501" stroke-linejoin="bevel" stroke-miterlimit="10" font-family="Times New Roman" font-size="16" style="font-variant-ligatures:none" xmlns:xlink="http://www.w3.org/1999/xlink" xmlns="http://www.w3.org/2000/svg" version="1.1" overflow="visible" width="93.059pt" height="93.058pt" viewBox="784.261 -2044.83 93.059 93.058">
 <defs>
	</defs>
 <g id="Page background" transform="scale(1 -1)"/>
 <g id="MouseOff" transform="scale(1 -1)">
  <ellipse rx="45.92" ry="45.92" transform="translate(830.791 1998.3) rotate(135)" stroke="#ffffff" stroke-width="1.232" stroke-linejoin="round" stroke-linecap="round"/>
  <g id="Group" fill="#ffffff" fill-rule="nonzero" stroke-linejoin="miter" stroke="none" stroke-width="0.062">
   <path d="M 827.92,2005.42 C 825.359,2007.98 820.348,2008.28 816.8,2008.28 C 816.434,2008.28 816.136,2007.98 816.136,2007.61 C 816.136,2004.07 816.431,1999.06 818.992,1996.5 C 820.072,1995.41 821.73,1994.93 823.372,1994.93 C 825.157,1994.93 826.926,1995.5 827.92,1996.5 C 829.827,1998.4 830.177,2003.17 827.92,2005.42 Z M 826.979,1997.43 C 825.555,1996.01 821.601,1995.77 819.934,1997.43 C 817.867,1999.5 817.509,2003.7 817.471,2006.94 C 820.713,2006.91 824.912,2006.55 826.979,2004.48 C 828.645,2002.81 828.402,1998.86 826.979,1997.43 Z" marker-start="none" marker-end="none"/>
   <path d="M 844.783,2005.65 C 841.235,2005.65 836.224,2005.35 833.663,2002.79 C 831.406,2000.53 831.756,1995.77 833.663,1993.86 C 834.657,1992.87 836.424,1992.3 838.209,1992.3 C 839.853,1992.3 841.508,1992.78 842.591,1993.86 C 845.15,1996.42 845.447,2001.43 845.447,2004.98 C 845.447,2005.35 845.149,2005.65 844.783,2005.65 Z M 841.648,1994.8 C 839.982,1993.14 836.026,1993.38 834.603,1994.8 C 833.18,1996.23 832.937,2000.18 834.603,2001.85 C 836.67,2003.92 840.869,2004.27 844.112,2004.31 C 844.072,2001.07 843.714,1996.87 841.648,1994.8 Z" marker-start="none" marker-end="none"/>
   <path d="M 839.977,1999.89 C 839.819,2000.22 839.369,2000.33 839.038,2000.18 C 833.932,1997.78 831.426,1993.6 830.285,1989.29 C 828.877,1998.44 824.8,2001.23 823.071,2002.41 C 822.856,2002.56 822.688,2002.67 822.595,2002.76 C 822.335,2003.02 821.914,2003.02 821.654,2002.76 C 821.394,2002.5 821.394,2002.08 821.654,2001.82 C 821.785,2001.69 822.013,2001.52 822.32,2001.31 C 824.269,1999.98 829.445,1996.44 829.445,1982.32 C 829.445,1981.96 829.743,1981.66 830.11,1981.66 C 830.478,1981.66 830.777,1981.96 830.777,1982.32 C 830.777,1988.03 832.309,1995.55 839.604,1998.97 C 839.604,1998.98 839.712,1999.03 839.712,1999.03 C 840.044,1999.18 840.133,1999.55 839.977,1999.89 Z" marker-start="none" marker-end="none"/>
  </g>
 </g>
</svg>
