<?xml version="1.0" standalone="no"?>
<!DOCTYPE svg PUBLIC "-//W3C//DTD SVG 1.1//EN" "http://www.w3.org/Graphics/SVG/1.1/DTD/svg11.dtd">
<!--Generator: Xara Designer (www.xara.com), SVG filter version: 6.5.0.22-->
<svg fill="none" fill-rule="evenodd" stroke="black" stroke-width="0.501" stroke-linejoin="bevel" stroke-miterlimit="10" font-family="Times New Roman" font-size="16" style="font-variant-ligatures:none" xmlns:xlink="http://www.w3.org/1999/xlink" xmlns="http://www.w3.org/2000/svg" version="1.1" overflow="visible" width="93.059pt" height="93.058pt" viewBox="554.392 -2044.83 93.059 93.058">
 <defs>
	</defs>
 <g id="Page background" transform="scale(1 -1)"/>
 <g id="MouseOff" transform="scale(1 -1)">
  <ellipse rx="45.92" ry="45.92" transform="translate(600.921 1998.3) rotate(135)" stroke="#ffffff" stroke-width="1.232" stroke-linejoin="round" stroke-linecap="round"/>
  <path d="M 612.07,1990.7 C 611.414,1990.04 611.884,1988.92 612.805,1988.92 C 613.725,1988.92 614.198,1990.04 613.541,1990.7 C 613.135,1991.11 612.477,1991.11 612.07,1990.7 Z M 615.357,1992.51 C 615.574,1992.3 615.574,1991.95 615.357,1991.73 C 615.14,1991.51 614.789,1991.51 614.572,1991.73 C 613.596,1992.71 612.015,1992.71 611.04,1991.73 C 610.823,1991.51 610.47,1991.51 610.254,1991.73 C 610.037,1991.95 610.037,1992.3 610.254,1992.51 C 611.664,1993.92 613.947,1993.93 615.357,1992.51 Z M 617.026,1993.63 C 616.883,1993.63 616.741,1993.68 616.633,1993.79 C 614.517,1995.91 611.094,1995.91 608.978,1993.79 C 608.761,1993.57 608.41,1993.57 608.193,1993.79 C 607.976,1994.01 607.976,1994.36 608.193,1994.58 C 610.743,1997.12 614.868,1997.12 617.418,1994.58 C 617.767,1994.23 617.516,1993.63 617.026,1993.63 Z M 612.505,1986.68 C 612.505,1984.84 611.01,1983.35 609.174,1983.35 L 591.2,1983.35 C 589.364,1983.35 587.87,1984.84 587.87,1986.68 L 587.87,2003.51 L 585.119,2001.72 C 584.861,2001.55 584.518,2001.63 584.351,2001.89 C 584.184,2002.14 584.257,2002.49 584.515,2002.65 L 597.452,2011.05 C 599.083,2012.1 601.19,2012.1 602.821,2011.05 L 606.05,2008.95 L 606.05,2012.15 C 605.744,2012.15 605.496,2012.39 605.496,2012.7 C 605.496,2013.01 605.744,2013.26 606.05,2013.26 L 611.949,2013.26 C 612.256,2013.26 612.505,2013.01 612.505,2012.7 C 612.505,2012.39 612.256,2012.15 611.949,2012.15 L 611.879,2012.15 L 611.879,2008.4 C 611.879,2008.09 611.631,2007.84 611.324,2007.84 C 611.018,2007.84 610.769,2008.09 610.769,2008.4 L 610.769,2012.15 L 607.161,2012.15 L 607.161,2008.23 L 615.758,2002.65 C 616.221,2002.35 616.005,2001.63 615.455,2001.63 C 615.212,2001.63 616.09,2001.11 602.216,2010.11 C 600.952,2010.93 599.32,2010.93 598.056,2010.11 L 588.981,2004.23 L 588.981,1986.68 C 588.981,1985.45 589.976,1984.46 591.2,1984.46 L 604.386,1984.46 L 604.386,1993.65 C 604.386,1994.32 603.841,1994.87 603.173,1994.87 L 597.131,1994.87 C 596.463,1994.87 595.919,1994.32 595.919,1993.65 L 595.919,1986.75 C 595.919,1986.44 595.671,1986.19 595.364,1986.19 C 595.058,1986.19 594.809,1986.44 594.809,1986.75 L 594.809,1993.65 C 594.809,1994.93 595.851,1995.98 597.131,1995.98 L 603.173,1995.98 C 604.453,1995.98 605.496,1994.93 605.496,1993.65 L 605.496,1984.46 L 609.174,1984.46 C 610.397,1984.46 611.394,1985.45 611.394,1986.68 C 611.394,1986.99 611.642,1987.23 611.949,1987.23 C 612.256,1987.23 612.505,1986.99 612.505,1986.68 Z M 611.949,2001.53 C 612.256,2001.53 612.505,2001.28 612.505,2000.97 L 612.505,1998.72 C 612.505,1998.41 612.256,1998.16 611.949,1998.16 C 611.642,1998.16 611.394,1998.41 611.394,1998.72 L 611.394,2000.97 C 611.394,2001.28 611.642,2001.53 611.949,2001.53 Z" stroke="none" fill="#ffffff" stroke-width="0.069" fill-rule="nonzero" stroke-linejoin="miter" marker-start="none" marker-end="none"/>
 </g>
</svg>
