<?xml version="1.0" standalone="no"?>
<!DOCTYPE svg PUBLIC "-//W3C//DTD SVG 1.1//EN" "http://www.w3.org/Graphics/SVG/1.1/DTD/svg11.dtd">
<!--Generator: Xara Designer (www.xara.com), SVG filter version: 6.5.0.22-->
<svg fill="none" fill-rule="evenodd" stroke="black" stroke-width="0.501" stroke-linejoin="bevel" stroke-miterlimit="10" font-family="Times New Roman" font-size="16" style="font-variant-ligatures:none" xmlns:xlink="http://www.w3.org/1999/xlink" xmlns="http://www.w3.org/2000/svg" version="1.1" overflow="visible" width="93.061pt" height="93.062pt" viewBox="349.145 -2044.83 93.061 93.062">
 <defs>
	</defs>
 <g id="Page background" transform="scale(1 -1)"/>
 <g id="MouseOff" transform="scale(1 -1)">
  <ellipse rx="45.922" ry="45.922" transform="translate(395.676 1998.3) rotate(135)" stroke="#ffffff" stroke-width="1.232" stroke-linejoin="round" stroke-linecap="round"/>
  <g id="Group" fill-rule="nonzero" stroke-linejoin="miter" stroke="none" stroke-width="0.068" fill="#ffffff">
   <path d="M 409.572,1994.78 C 409.569,1994.83 409.56,1994.88 409.544,1994.92 C 409.538,1994.94 409.534,1994.96 409.527,1994.97 C 409.5,1995.03 409.463,1995.09 409.418,1995.13 L 400.732,2003.82 C 400.63,2003.92 400.494,2003.98 400.35,2003.98 L 388.639,2003.98 C 388.841,2004.4 388.946,2004.87 388.949,2005.34 C 388.946,2006.93 387.79,2008.29 386.216,2008.55 C 386.229,2008.66 386.234,2008.76 386.234,2008.86 C 386.234,2010.66 384.776,2012.12 382.977,2012.12 C 381.178,2012.12 379.719,2010.66 379.719,2008.86 C 379.719,2008.76 379.726,2008.66 379.737,2008.55 C 377.969,2008.27 376.764,2006.61 377.045,2004.84 C 377.117,2004.39 377.284,2003.95 377.537,2003.57 C 376.8,2002.45 376.832,2000.99 377.619,1999.91 C 376.718,1998.66 376.818,1996.96 377.859,1995.83 L 377.164,1995.13 C 377.062,1995.03 377.006,1994.89 377.006,1994.75 L 377.006,1983.89 C 377.006,1983.59 377.248,1983.35 377.548,1983.35 L 409.035,1983.35 C 409.336,1983.35 409.579,1983.59 409.579,1983.89 L 409.579,1994.75 C 409.579,1994.76 409.573,1994.77 409.572,1994.78 Z M 407.724,1995.29 L 404.385,1995.29 L 402.349,1997.46 L 405.553,1997.46 L 407.724,1995.29 Z M 395.461,2000.18 L 398.316,2000.18 L 399.843,1998.55 L 396.988,1998.55 L 395.461,2000.18 Z M 395.5,1998.55 L 391.888,1998.55 L 390.259,2000.18 L 393.974,2000.18 L 395.5,1998.55 Z M 400.862,1997.46 L 402.897,1995.29 L 400.042,1995.29 L 398.006,1997.46 L 400.862,1997.46 Z M 404.468,1998.55 L 401.331,1998.55 L 399.807,2000.18 L 402.842,2000.18 L 404.468,1998.55 Z M 400.125,2002.89 L 401.753,2001.26 L 398.786,2001.26 L 397.259,2002.89 L 400.125,2002.89 Z M 395.771,2002.89 L 397.298,2001.26 L 394.443,2001.26 L 392.916,2002.89 L 395.771,2002.89 Z M 391.428,2002.89 L 392.956,2001.26 L 389.174,2001.26 L 387.545,2002.89 L 391.428,2002.89 Z M 378.626,2003.92 C 378.282,2004.31 378.093,2004.82 378.091,2005.34 C 378.091,2006.53 379.063,2007.51 380.262,2007.51 L 380.268,2007.51 C 380.303,2007.5 380.34,2007.5 380.377,2007.5 C 380.677,2007.48 380.932,2007.71 380.948,2008.01 C 380.951,2008.08 380.943,2008.14 380.922,2008.2 C 380.849,2008.42 380.81,2008.64 380.806,2008.86 C 380.806,2010.06 381.778,2011.04 382.977,2011.04 C 384.176,2011.04 385.148,2010.06 385.148,2008.86 C 385.145,2008.64 385.106,2008.42 385.032,2008.2 C 384.942,2007.92 385.101,2007.61 385.387,2007.52 C 385.449,2007.5 385.514,2007.49 385.579,2007.5 C 385.617,2007.5 385.654,2007.5 385.691,2007.51 C 386.891,2007.51 387.864,2006.53 387.864,2005.34 C 387.862,2004.84 387.689,2004.36 387.375,2003.98 L 386.234,2003.98 C 386.171,2003.98 386.109,2003.96 386.05,2003.94 C 386.043,2003.94 386.036,2003.94 386.028,2003.94 C 386.021,2003.93 386.009,2003.92 385.998,2003.92 C 385.954,2003.9 385.915,2003.87 385.878,2003.84 C 385.87,2003.83 385.859,2003.83 385.851,2003.82 L 383.52,2001.49 L 383.52,2007.24 C 383.52,2007.54 383.278,2007.78 382.977,2007.78 C 382.677,2007.78 382.435,2007.54 382.435,2007.24 L 382.435,2004.2 L 381.189,2005.45 C 380.974,2005.66 380.63,2005.65 380.422,2005.43 C 380.218,2005.22 380.218,2004.89 380.422,2004.68 L 382.435,2002.67 L 382.435,2000.4 L 381.891,1999.86 L 381.189,2000.56 C 380.974,2000.77 380.63,2000.76 380.422,2000.55 C 380.218,2000.34 380.218,2000 380.422,1999.79 L 381.123,1999.09 L 378.623,1996.6 C 378.28,1996.98 378.091,1997.49 378.091,1998.01 C 378.09,1998.58 378.315,1999.12 378.715,1999.53 C 378.922,1999.74 378.922,2000.08 378.715,2000.29 C 377.918,2001.09 377.879,2002.37 378.626,2003.22 C 378.8,2003.42 378.8,2003.72 378.626,2003.92 Z M 388.406,1984.43 L 384.062,1984.43 L 384.062,1990.95 L 388.406,1990.95 L 388.406,1984.43 Z M 394.378,1984.43 L 389.491,1984.43 L 389.491,1991.49 C 389.491,1991.79 389.249,1992.03 388.949,1992.03 L 383.52,1992.03 C 383.22,1992.03 382.977,1991.79 382.977,1991.49 L 382.977,1984.43 L 378.091,1984.43 L 378.091,1994.52 L 379.024,1995.46 L 383.361,1999.79 L 386.234,2002.67 L 394.378,1994.52 L 394.378,1984.43 Z M 392.974,1997.46 L 396.518,1997.46 L 398.554,1995.29 L 395.146,1995.29 L 392.974,1997.46 Z M 408.493,1984.43 L 395.464,1984.43 L 395.464,1994.21 L 408.493,1994.21 L 408.493,1984.43 Z" marker-start="none" marker-end="none"/>
   <path d="M 403.606,2013.75 C 401.508,2013.75 399.807,2012.05 399.807,2009.95 C 399.807,2007.85 401.508,2006.15 403.606,2006.15 C 405.705,2006.15 407.405,2007.85 407.407,2009.95 C 407.407,2012.05 405.706,2013.75 403.606,2013.75 Z M 403.606,2007.24 C 402.107,2007.24 400.893,2008.45 400.893,2009.95 C 400.893,2011.45 402.107,2012.66 403.606,2012.66 C 405.106,2012.66 406.322,2011.45 406.322,2009.95 C 406.319,2008.45 405.106,2007.24 403.606,2007.24 Z" marker-start="none" marker-end="none"/>
   <rect x="-0.543" y="-0.543" width="1.086" height="1.086" transform="translate(403.606 2015.38)"/>
   <rect x="-0.543" y="-0.543" width="1.086" height="1.086" transform="translate(403.606 2004.52)"/>
   <rect x="-0.542" y="-0.543" width="1.084" height="1.086" transform="translate(398.178 2009.95)"/>
   <rect x="-0.543" y="-0.543" width="1.086" height="1.086" transform="translate(409.035 2009.95)"/>
   <rect x="-0.542" y="-0.542" width="1.085" height="1.084" transform="translate(399.767 2013.79) rotate(45)"/>
   <rect x="-0.542" y="-0.542" width="1.085" height="1.084" transform="translate(407.444 2006.11) rotate(45)"/>
   <rect x="-0.542" y="-0.542" width="1.085" height="1.084" transform="translate(399.767 2006.11) rotate(45)"/>
   <rect x="-0.542" y="-0.542" width="1.085" height="1.084" transform="translate(407.445 2013.79) rotate(45)"/>
  </g>
 </g>
</svg>
